<?xml version="1.0" encoding="UTF-8"?>
<svg xmlns="http://www.w3.org/2000/svg" xmlns:xlink="http://www.w3.org/1999/xlink" width="70px" height="70px" viewBox="0 0 70 70" version="1.1">
<g id="surface1">
<path style=" stroke:none;fill-rule:nonzero;fill:rgb(0%,0%,0%);fill-opacity:1;" d="M 49.972656 22.105469 C 49.480469 21.613281 48.824219 21.335938 48.128906 21.328125 C 48.117188 21.328125 48.109375 21.328125 48.097656 21.328125 C 47.414062 21.328125 46.761719 21.589844 46.265625 22.0625 L 31.484375 36.195312 C 33.066406 36.601562 34.417969 37.617188 35.300781 39.101562 C 35.570312 39.554688 35.785156 40.03125 35.945312 40.527344 L 50.015625 25.8125 C 50.488281 25.316406 50.75 24.664062 50.75 23.980469 C 50.75 23.273438 50.472656 22.605469 49.972656 22.105469 Z M 49.972656 22.105469 "/>
<path style=" stroke:none;fill-rule:nonzero;fill:rgb(0%,0%,0%);fill-opacity:1;" d="M 30.113281 37.851562 C 30.039062 37.847656 29.964844 37.847656 29.890625 37.847656 C 28.644531 37.847656 27.40625 38.28125 26.398438 39.007812 C 25.179688 39.882812 24.695312 41.136719 23.804688 42.285156 C 22.683594 43.71875 20.960938 44.421875 19.25 44.902344 C 20.246094 47.53125 23.945312 48.609375 26.371094 48.667969 C 26.457031 48.671875 26.546875 48.671875 26.632812 48.671875 C 29.382812 48.671875 32.617188 47.652344 33.941406 44.949219 C 35.394531 41.980469 33.601562 37.996094 30.113281 37.851562 Z M 30.113281 37.851562 "/>
</g>
</svg>
