<?xml version="1.0" encoding="UTF-8"?>
<svg xmlns="http://www.w3.org/2000/svg" xmlns:xlink="http://www.w3.org/1999/xlink" width="30px" height="30px" viewBox="0 0 30 30" version="1.1">
<g id="surface1">
<path style=" stroke:none;fill-rule:nonzero;fill:rgb(0%,0%,0%);fill-opacity:1;" d="M 26.347656 0 L 3.652344 0 C 1.640625 0 0 1.640625 0 3.652344 L 0 26.347656 C 0 28.359375 1.640625 30 3.652344 30 L 15.285156 30 C 15.773438 30 16.171875 29.601562 16.171875 29.113281 L 16.171875 18.375 C 16.171875 17.882812 15.773438 17.488281 15.285156 17.488281 L 12.101562 17.488281 L 12.101562 14.964844 L 15.285156 14.964844 C 15.773438 14.964844 16.171875 14.570312 16.171875 14.082031 L 16.171875 10.496094 C 16.171875 8.554688 17.75 6.976562 19.691406 6.976562 L 22.761719 6.976562 L 22.761719 9.496094 L 19.691406 9.496094 C 19.140625 9.496094 18.691406 9.945312 18.691406 10.496094 L 18.691406 14.082031 C 18.691406 14.570312 19.089844 14.964844 19.578125 14.964844 L 22.761719 14.964844 L 22.761719 17.488281 L 19.578125 17.488281 C 19.089844 17.488281 18.691406 17.882812 18.691406 18.375 L 18.691406 29.113281 C 18.691406 29.601562 19.089844 30 19.578125 30 L 26.347656 30 C 28.359375 30 30 28.359375 30 26.347656 L 30 3.652344 C 30 1.640625 28.359375 0 26.347656 0 Z M 28.226562 26.347656 C 28.226562 27.382812 27.382812 28.226562 26.347656 28.226562 L 20.464844 28.226562 L 20.464844 19.257812 L 23.648438 19.257812 C 24.136719 19.257812 24.535156 18.863281 24.535156 18.375 L 24.535156 14.082031 C 24.535156 13.589844 24.136719 13.195312 23.648438 13.195312 L 20.464844 13.195312 L 20.464844 11.269531 L 23.648438 11.269531 C 24.136719 11.269531 24.535156 10.871094 24.535156 10.382812 L 24.535156 6.089844 C 24.535156 5.601562 24.136719 5.203125 23.648438 5.203125 L 19.691406 5.203125 C 16.773438 5.203125 14.398438 7.578125 14.398438 10.496094 L 14.398438 13.195312 L 11.214844 13.195312 C 10.726562 13.195312 10.328125 13.589844 10.328125 14.082031 L 10.328125 18.375 C 10.328125 18.863281 10.726562 19.257812 11.214844 19.257812 L 14.398438 19.257812 L 14.398438 28.226562 L 3.652344 28.226562 C 2.617188 28.226562 1.773438 27.382812 1.773438 26.347656 L 1.773438 3.652344 C 1.773438 2.617188 2.617188 1.773438 3.652344 1.773438 L 26.347656 1.773438 C 27.382812 1.773438 28.226562 2.617188 28.226562 3.652344 Z M 28.226562 26.347656 "/>
</g>
</svg>
