<?xml version="1.0" encoding="UTF-8"?>
<svg xmlns="http://www.w3.org/2000/svg" xmlns:xlink="http://www.w3.org/1999/xlink" width="30px" height="30px" viewBox="0 0 30 30" version="1.1">
<g id="surface1">
<path style=" stroke:none;fill-rule:nonzero;fill:rgb(0%,0%,0%);fill-opacity:1;" d="M 22.5 0 L 7.5 0 C 3.375 0 0 3.375 0 7.5 L 0 22.5 C 0 26.625 3.375 30 7.5 30 L 22.5 30 C 26.625 30 30 26.625 30 22.5 L 30 7.5 C 30 3.375 26.625 0 22.5 0 Z M 15 21.25 C 11.546875 21.25 8.75 18.449219 8.75 15 C 8.75 11.546875 11.546875 8.75 15 8.75 C 18.449219 8.75 21.25 11.546875 21.25 15 C 21.25 18.449219 18.449219 21.25 15 21.25 Z M 23.125 8.75 C 22.089844 8.75 21.25 7.910156 21.25 6.875 C 21.25 5.839844 22.089844 5 23.125 5 C 24.160156 5 25 5.839844 25 6.875 C 25 7.910156 24.160156 8.75 23.125 8.75 Z M 23.125 8.75 "/>
</g>
</svg>
