<?xml version="1.0" encoding="UTF-8"?>
<svg xmlns="http://www.w3.org/2000/svg" xmlns:xlink="http://www.w3.org/1999/xlink" width="30px" height="30px" viewBox="0 0 30 30" version="1.1">
<g id="surface1">
<path style=" stroke:none;fill-rule:nonzero;fill:rgb(12.941176%,12.941176%,12.941176%);fill-opacity:1;" d="M 10.773438 27 C 11.628906 27 11.859375 26.664062 11.859375 26.25 C 11.859375 25.878906 11.847656 24.894531 11.839844 23.59375 C 7.417969 24.535156 6.484375 21.496094 6.484375 21.496094 C 5.761719 19.695312 4.714844 19.210938 4.714844 19.210938 C 3.277344 18.242188 4.828125 18.261719 4.828125 18.261719 C 6.425781 18.371094 7.261719 19.871094 7.261719 19.871094 C 8.679688 22.261719 10.984375 21.570312 11.894531 21.171875 C 12.035156 20.160156 12.445312 19.472656 12.898438 19.082031 C 9.371094 18.691406 5.660156 17.347656 5.660156 11.363281 C 5.660156 9.65625 6.273438 8.265625 7.292969 7.171875 C 7.117188 6.777344 6.578125 5.1875 7.433594 3.035156 C 7.433594 3.035156 8.765625 2.617188 11.804688 4.636719 C 13.078125 4.289062 14.429688 4.117188 15.78125 4.109375 C 17.132812 4.117188 18.484375 4.289062 19.753906 4.636719 C 22.777344 2.617188 24.105469 3.035156 24.105469 3.035156 C 24.960938 5.1875 24.425781 6.777344 24.265625 7.171875 C 25.28125 8.265625 25.894531 9.65625 25.894531 11.363281 C 25.894531 17.363281 22.179688 18.683594 18.640625 19.070312 C 19.199219 19.539062 19.714844 20.496094 19.714844 21.960938 C 19.714844 24.050781 19.695312 25.730469 19.695312 26.238281 C 19.695312 26.648438 19.871094 26.980469 20.789062 26.980469 Z M 10.773438 27 "/>
</g>
</svg>
