<?xml version="1.0" encoding="UTF-8"?>
<svg xmlns="http://www.w3.org/2000/svg" xmlns:xlink="http://www.w3.org/1999/xlink" viewBox="0 0 60 60" width="60px" height="60px">
<g id="surface10200530">
<rect x="0" y="0" width="60" height="60" style="fill:rgb(8.627451%,8.627451%,8.627451%);fill-opacity:1;stroke:none;"/>
<path style=" stroke:none;fill-rule:nonzero;fill:rgb(100%,100%,100%);fill-opacity:1;" d="M 14 8 C 13.488281 8 12.976562 8.195312 12.585938 8.585938 L 8.585938 12.585938 C 7.804688 13.367188 7.804688 14.632812 8.585938 15.414062 L 23.171875 30 L 8.585938 44.585938 C 7.804688 45.367188 7.804688 46.632812 8.585938 47.414062 L 12.585938 51.414062 C 13.367188 52.195312 14.632812 52.195312 15.414062 51.414062 L 30 36.828125 L 44.585938 51.414062 C 45.367188 52.195312 46.632812 52.195312 47.414062 51.414062 L 51.414062 47.414062 C 52.195312 46.632812 52.195312 45.367188 51.414062 44.585938 L 36.828125 30 L 51.414062 15.414062 C 52.195312 14.632812 52.195312 13.367188 51.414062 12.585938 L 47.414062 8.585938 C 46.632812 7.804688 45.367188 7.804688 44.585938 8.585938 L 30 23.171875 L 15.414062 8.585938 C 15.023438 8.195312 14.511719 8 14 8 Z M 14 8 "/>
</g>
</svg>
