<?xml version="1.0" encoding="UTF-8"?>
<svg xmlns="http://www.w3.org/2000/svg" xmlns:xlink="http://www.w3.org/1999/xlink" width="30px" height="30px" viewBox="0 0 30 30" version="1.1">
<g id="surface1">
<path style=" stroke:none;fill-rule:nonzero;fill:rgb(0%,0%,0%);fill-opacity:1;" d="M 26.96875 7.558594 C 26.070312 7.949219 25.140625 8.21875 24.148438 8.339844 C 25.171875 7.738281 25.949219 6.78125 26.308594 5.609375 C 25.351562 6.179688 24.300781 6.570312 23.191406 6.808594 C 22.289062 5.851562 21 5.25 19.589844 5.25 C 16.859375 5.25 14.671875 7.46875 14.671875 10.171875 C 14.671875 10.558594 14.699219 10.921875 14.789062 11.28125 C 10.710938 11.101562 7.109375 9.121094 4.679688 6.148438 C 2.941406 9.269531 4.890625 11.851562 6.179688 12.71875 C 5.398438 12.71875 4.621094 12.480469 3.960938 12.121094 C 3.960938 14.550781 5.671875 16.558594 7.890625 17.011719 C 7.410156 17.160156 6.328125 17.25 5.671875 17.101562 C 6.300781 19.050781 8.128906 20.488281 10.261719 20.519531 C 8.578125 21.839844 6.121094 22.890625 2.96875 22.558594 C 5.160156 23.96875 7.738281 24.78125 10.53125 24.78125 C 19.589844 24.78125 24.511719 17.28125 24.511719 10.800781 C 24.511719 10.589844 24.511719 10.378906 24.480469 10.171875 C 25.5 9.421875 26.339844 8.550781 26.96875 7.558594 Z M 26.96875 7.558594 "/>
</g>
</svg>
