<?xml version="1.0" encoding="UTF-8"?>
<svg xmlns="http://www.w3.org/2000/svg" xmlns:xlink="http://www.w3.org/1999/xlink" width="30px" height="30px" viewBox="0 0 30 30" version="1.1">
<g id="surface1">
<path style=" stroke:none;fill-rule:nonzero;fill:rgb(0%,0%,0%);fill-opacity:1;" d="M 25.605469 4.394531 C 22.773438 1.558594 19.007812 0 15 0 C 10.992188 0 7.226562 1.558594 4.394531 4.394531 C 1.558594 7.226562 0 10.992188 0 15 C 0 19.007812 1.558594 22.773438 4.394531 25.605469 C 7.226562 28.441406 10.992188 30 15 30 C 19.007812 30 22.773438 28.441406 25.605469 25.605469 C 28.441406 22.773438 30 19.007812 30 15 C 30 10.992188 28.441406 7.226562 25.605469 4.394531 Z M 5.636719 5.636719 C 6.957031 4.320312 8.503906 3.3125 10.191406 2.65625 C 9.742188 3.21875 9.324219 3.863281 8.9375 4.585938 C 8.488281 5.429688 8.101562 6.355469 7.78125 7.34375 C 6.667969 7.160156 5.632812 6.933594 4.710938 6.664062 C 5 6.308594 5.308594 5.964844 5.636719 5.636719 Z M 3.644531 8.179688 C 4.726562 8.523438 5.960938 8.816406 7.304688 9.046875 C 6.929688 10.636719 6.710938 12.351562 6.65625 14.121094 L 1.789062 14.121094 C 1.925781 11.996094 2.566406 9.972656 3.644531 8.179688 Z M 3.550781 21.660156 C 2.527344 19.90625 1.921875 17.9375 1.789062 15.878906 L 6.660156 15.878906 C 6.71875 17.597656 6.933594 19.261719 7.296875 20.8125 C 5.921875 21.035156 4.65625 21.320312 3.550781 21.660156 Z M 5.636719 24.363281 C 5.265625 23.988281 4.914062 23.597656 4.59375 23.1875 C 5.550781 22.921875 6.617188 22.699219 7.769531 22.515625 C 8.09375 23.519531 8.484375 24.457031 8.9375 25.308594 C 9.355469 26.101562 9.820312 26.796875 10.316406 27.390625 C 8.578125 26.734375 6.988281 25.714844 5.636719 24.363281 Z M 14.121094 28.015625 C 12.785156 27.640625 11.519531 26.417969 10.492188 24.484375 C 10.132812 23.808594 9.816406 23.070312 9.542969 22.28125 C 10.992188 22.121094 12.535156 22.027344 14.121094 22.007812 Z M 14.121094 20.246094 C 12.363281 20.269531 10.652344 20.378906 9.046875 20.570312 C 8.691406 19.105469 8.480469 17.523438 8.421875 15.878906 L 14.121094 15.878906 Z M 14.121094 14.121094 L 8.417969 14.121094 C 8.472656 12.429688 8.6875 10.804688 9.050781 9.304688 C 10.644531 9.503906 12.355469 9.625 14.121094 9.660156 Z M 14.121094 7.898438 C 12.53125 7.867188 10.992188 7.761719 9.550781 7.59375 C 9.820312 6.816406 10.136719 6.085938 10.492188 5.414062 C 11.519531 3.476562 12.785156 2.257812 14.121094 1.882812 Z M 26.410156 8.273438 C 27.457031 10.042969 28.074219 12.035156 28.210938 14.121094 L 23.34375 14.121094 C 23.289062 12.371094 23.074219 10.679688 22.707031 9.101562 C 24.0625 8.882812 25.3125 8.605469 26.410156 8.273438 Z M 24.363281 5.636719 C 24.714844 5.992188 25.046875 6.359375 25.351562 6.746094 C 24.410156 7.003906 23.363281 7.222656 22.234375 7.398438 C 21.910156 6.386719 21.519531 5.445312 21.0625 4.585938 C 20.675781 3.863281 20.257812 3.21875 19.808594 2.65625 C 21.496094 3.3125 23.042969 4.320312 24.363281 5.636719 Z M 15.878906 15.878906 L 21.578125 15.878906 C 21.519531 17.535156 21.304688 19.132812 20.945312 20.601562 C 19.351562 20.40625 17.644531 20.285156 15.878906 20.25 Z M 15.878906 14.121094 L 15.878906 9.664062 C 17.636719 9.640625 19.351562 9.53125 20.957031 9.34375 C 21.316406 10.832031 21.527344 12.445312 21.582031 14.121094 Z M 15.878906 1.882812 C 17.214844 2.257812 18.480469 3.476562 19.507812 5.414062 C 19.871094 6.09375 20.1875 6.839844 20.460938 7.632812 C 19.007812 7.789062 17.464844 7.882812 15.878906 7.90625 Z M 15.878906 28.015625 L 15.878906 22.011719 C 17.46875 22.042969 19.007812 22.144531 20.445312 22.3125 C 20.175781 23.089844 19.863281 23.816406 19.507812 24.484375 C 18.480469 26.417969 17.214844 27.640625 15.878906 28.015625 Z M 24.363281 24.363281 C 23.011719 25.714844 21.421875 26.734375 19.683594 27.390625 C 20.179688 26.796875 20.644531 26.101562 21.0625 25.308594 C 21.507812 24.46875 21.894531 23.546875 22.214844 22.5625 C 23.355469 22.75 24.410156 22.984375 25.351562 23.257812 C 25.042969 23.640625 24.714844 24.007812 24.363281 24.363281 Z M 26.402344 21.738281 C 25.3125 21.386719 24.058594 21.09375 22.691406 20.859375 C 23.0625 19.296875 23.28125 17.617188 23.339844 15.878906 L 28.210938 15.878906 C 28.074219 17.96875 27.453125 19.96875 26.402344 21.738281 Z M 26.402344 21.738281 "/>
</g>
</svg>
